<svg xmlns="http://www.w3.org/2000/svg" height="800" width="1200" viewBox="-3.6 -6 31.2 36"><path fill-rule="evenodd" fill="#4872a3" d="M15.68 0C22.4 0 24 1.6 24 8.32v7.36C24 22.4 22.4 24 15.68 24H8.32C1.6 24 0 22.4 0 15.68V8.32C0 1.6 1.6 0 8.32 0zM6.5 7.5H4.75c-.5 0-.6.24-.6.49 0 .47.59 2.77 2.76 5.81a6.85 6.85 0 005.34 3.2c1.11 0 1.25-.25 1.25-.68v-1.57c0-.5.11-.6.46-.6.35 0 .7.13 1.74 1.13 1.19 1.19 1.38 1.72 2.05 1.72h1.75c.5 0 .75-.25.61-.74a7.43 7.43 0 00-1.48-2.05c-.41-.49-1-1-1.21-1.26-.21-.26-.18-.49 0-.78a21.83 21.83 0 002.36-4c.11-.37 0-.64-.53-.64H17.5a.77.77 0 00-.76.49 14.67 14.67 0 01-2.15 3.58c-.41.41-.6.54-.82.54-.22 0-.27-.13-.27-.5v-3.5c0-.44-.13-.64-.5-.64h-2.75a.43.43 0 00-.45.4c0 .42.64.52.7 1.71v2.57c0 .57-.1.67-.32.67-.6 0-2-2.18-2.9-4.67C7.12 7.7 7 7.5 6.5 7.5z"/></svg>